<svg width="41" height="41" viewBox="0 0 41 41" fill="none" xmlns="http://www.w3.org/2000/svg">
<g id="mdi:person-multiple">
<path id="Vector" d="M27.3334 29.0416V32.4583H3.41675V29.0416C3.41675 29.0416 3.41675 22.2083 15.3751 22.2083C27.3334 22.2083 27.3334 29.0416 27.3334 29.0416ZM21.3542 12.8125C21.3542 11.6299 21.0036 10.4739 20.3466 9.49063C19.6896 8.50737 18.7558 7.741 17.6632 7.28845C16.5707 6.8359 15.3684 6.7175 14.2086 6.9482C13.0488 7.17891 11.9834 7.74837 11.1472 8.58457C10.311 9.42077 9.74151 10.4862 9.5108 11.646C9.2801 12.8058 9.3985 14.0081 9.85105 15.1006C10.3036 16.1932 11.07 17.127 12.0532 17.784C13.0365 18.441 14.1925 18.7916 15.3751 18.7916C16.9609 18.7916 18.4817 18.1617 19.603 17.0404C20.7243 15.9191 21.3542 14.3983 21.3542 12.8125ZM27.2309 22.2083C28.2811 23.021 29.1404 24.0541 29.7484 25.2346C30.3564 26.4152 30.6983 27.7147 30.7501 29.0416V32.4583H37.5834V29.0416C37.5834 29.0416 37.5834 22.8404 27.2309 22.2083ZM25.6251 6.83331C24.4494 6.82785 23.2997 7.17931 22.328 7.84123C23.3657 9.29116 23.9237 11.0295 23.9237 12.8125C23.9237 14.5955 23.3657 16.3338 22.328 17.7837C23.2997 18.4457 24.4494 18.7971 25.6251 18.7916C27.2109 18.7916 28.7317 18.1617 29.853 17.0404C30.9743 15.9191 31.6042 14.3983 31.6042 12.8125C31.6042 11.2267 30.9743 9.70588 29.853 8.58457C28.7317 7.46326 27.2109 6.83331 25.6251 6.83331Z" fill="#CCCCCC"/>
</g>
</svg>
