<svg width="41" height="41" viewBox="0 0 41 41" fill="none" xmlns="http://www.w3.org/2000/svg">
<g id="gravity-ui:target-dart" clip-path="url(#clip0_424_189)">
<path id="Vector" fill-rule="evenodd" clip-rule="evenodd" d="M34.0633 0.000121135C35.0626 0.000121135 35.875 0.812434 35.875 1.81181V5.12512H39.1883C39.5466 5.12504 39.897 5.23126 40.195 5.43032C40.493 5.62939 40.7253 5.91236 40.8624 6.24345C40.9996 6.57454 41.0354 6.93887 40.9655 7.29036C40.8956 7.64184 40.723 7.96469 40.4695 8.21806L36.7283 11.9593C36.1823 12.5048 35.4424 12.8117 34.6706 12.8126H30.9037L21.8581 21.8582C21.4938 22.1977 21.0119 22.3825 20.514 22.3738C20.0161 22.365 19.541 22.1633 19.1889 21.8112C18.8368 21.459 18.6351 20.984 18.6263 20.4861C18.6175 19.9882 18.8023 19.5063 19.1418 19.142L28.1875 10.0964V6.3295C28.1875 5.55818 28.495 4.81762 29.0408 4.26925L32.782 0.527996C32.9503 0.359777 33.15 0.226352 33.3699 0.135339C33.5897 0.0443257 33.8253 -0.00249218 34.0633 -0.00244136V0.000121135ZM6.4062 20.5001C6.40593 18.4105 6.87033 16.347 7.76576 14.4589C8.6612 12.5709 9.96526 10.9056 11.5835 9.58355C13.2018 8.26155 15.0938 7.31594 17.1226 6.81519C19.1513 6.31444 21.266 6.27108 23.3136 6.68825C23.8105 6.78306 24.3248 6.67812 24.7448 6.39619C25.1649 6.11426 25.4568 5.67808 25.5574 5.18227C25.6579 4.68646 25.5588 4.17101 25.2817 3.74775C25.0046 3.3245 24.5718 3.02756 24.0772 2.92137C20.2992 2.15327 16.3743 2.62281 12.8841 4.26042C9.39395 5.89802 6.52425 8.61653 4.70033 12.0131C2.87641 15.4096 2.19533 19.3034 2.75803 23.1174C3.32074 26.9313 5.09727 30.4625 7.82436 33.1876C10.5514 35.9127 14.0839 37.6867 17.8983 38.2466C21.7127 38.8065 25.606 38.1226 29.0012 36.2962C32.3964 34.4697 35.1128 31.5981 36.7479 28.1067C38.3829 24.6153 38.8496 20.69 38.0787 16.9126C37.9771 16.4131 37.6812 15.9744 37.2562 15.693C36.8311 15.4117 36.3117 15.3107 35.8122 15.4123C35.3127 15.5139 34.874 15.8098 34.5926 16.2348C34.3112 16.6599 34.2102 17.1793 34.3118 17.6788C34.7036 19.6084 34.6868 21.5987 34.2624 23.5214C33.838 25.4441 33.0154 27.2565 31.8477 28.8418C30.6799 30.4271 29.193 31.7502 27.4827 32.7257C25.7724 33.7013 23.8766 34.3076 21.9176 34.5056C19.9586 34.7037 17.9799 34.4891 16.1089 33.8756C14.238 33.2622 12.5163 32.2635 11.0549 30.944C9.59347 29.6245 8.42477 28.0134 7.6241 26.2146C6.82342 24.4157 6.40854 22.4691 6.4062 20.5001ZM20.1515 14.1041C20.6605 14.0769 21.1379 13.8487 21.4786 13.4695C21.8193 13.0903 21.9955 12.5913 21.9683 12.0823C21.9411 11.5733 21.7128 11.0959 21.3336 10.7552C20.9545 10.4145 20.4555 10.2383 19.9465 10.2655C17.9783 10.3716 16.0824 11.0429 14.486 12.199C12.8896 13.3551 11.6604 14.9469 10.9457 16.7838C10.2309 18.6207 10.061 20.6247 10.4562 22.5558C10.8514 24.4868 11.7949 26.2629 13.1738 27.6713C14.5527 29.0798 16.3085 30.0607 18.2307 30.4967C20.1529 30.9327 22.1601 30.8053 24.0117 30.1296C25.8633 29.4539 27.4809 28.2587 28.6705 26.6872C29.8602 25.1156 30.5715 23.2344 30.7192 21.2689C30.7569 20.7605 30.5912 20.258 30.2584 19.8719C29.9256 19.4857 29.453 19.2476 28.9447 19.2099C28.4363 19.1722 27.9338 19.338 27.5477 19.6707C27.1615 20.0035 26.9234 20.4761 26.8857 20.9844C26.7922 22.2122 26.3469 23.3871 25.603 24.3683C24.8591 25.3496 23.8482 26.0957 22.6913 26.5172C21.5343 26.9388 20.2804 27.018 19.0796 26.7454C17.8788 26.4728 16.782 25.8599 15.9206 24.9801C15.0591 24.1003 14.4694 22.9908 14.2222 21.7845C13.9749 20.5783 14.0805 19.3263 14.5264 18.1785C14.9723 17.0307 15.7395 16.0357 16.7362 15.3127C17.7329 14.5896 18.9168 14.1691 20.1463 14.1016L20.1515 14.1041Z" fill="#C0BDBD"/>
</g>
<defs>
<clipPath id="clip0_424_189">
<rect width="41" height="41" fill="white"/>
</clipPath>
</defs>
</svg>
