<svg width="41" height="41" viewBox="0 0 41 41" fill="none" xmlns="http://www.w3.org/2000/svg">
<g id="mdi:brain">
<path id="Vector" d="M36.4387 22.0545C36.5925 24.7024 35.3796 27.2479 33.21 28.8024L34.5254 31.3479C34.9183 32.1166 34.9696 33.022 34.6279 33.8249C34.3033 34.6279 33.6371 35.2599 32.8171 35.5333L31.4675 35.9604C30.9054 36.1489 30.299 36.1599 29.7305 35.9918C29.162 35.8237 28.6591 35.4847 28.29 35.0208L24.6683 30.7499C23.1479 30.4937 21.7129 29.8445 20.5 28.8708C19.6458 29.127 18.7916 29.2637 17.9375 29.2637C16.4341 29.2637 14.9308 28.8024 13.6666 27.9141C12.7612 28.1874 11.8387 28.307 10.8991 28.2899C9.54956 28.307 8.21706 28.0337 6.96998 27.5212C5.76899 26.9864 4.74276 26.1244 4.00864 25.0338C3.27452 23.9432 2.86217 22.6681 2.81873 21.3541C2.68206 20.1241 2.88706 18.877 3.41664 17.7495C2.92123 16.4683 2.86998 15.0674 3.29706 13.7691C3.92914 12.1462 5.12498 10.7966 6.61123 9.94244C7.60206 7.05536 10.3866 5.12494 13.4446 5.32994C16.1779 2.76744 20.3633 2.49411 23.4041 4.69786C24.1216 4.50994 24.8733 4.40744 25.625 4.40744C27.9483 4.35619 30.1521 5.38119 31.6041 7.20911C35.0891 8.11452 37.5833 11.2237 37.72 14.8454C37.8054 16.7416 37.2929 18.6037 36.2508 20.1924C36.3704 20.8074 36.4387 21.4224 36.4387 22.0545ZM27.8971 19.6458C28.8708 19.7654 29.6396 20.4999 29.6396 21.4737C29.6396 21.9268 29.4596 22.3613 29.1392 22.6817C28.8188 23.002 28.3843 23.182 27.9312 23.182H26.855C26.3083 24.7195 25.3516 26.0691 24.0875 27.0941C24.5146 27.2479 24.9587 27.3333 25.4029 27.4529C34.1666 27.3333 33.1416 21.9862 33.1416 21.9008C33.1196 21.3196 32.9833 20.7484 32.7403 20.22C32.4974 19.6916 32.1527 19.2162 31.7258 18.8212C31.299 18.4261 30.7985 18.119 30.2529 17.9175C29.7073 17.7161 29.1274 17.6242 28.5462 17.647C28.0931 17.647 27.6586 17.467 27.3383 17.1467C27.0179 16.8263 26.8379 16.3918 26.8379 15.9387C26.8379 15.4856 27.0179 15.0511 27.3383 14.7307C27.6586 14.4103 28.0931 14.2304 28.5462 14.2304C30.6475 14.2816 32.6633 15.0674 34.235 16.4512C34.3204 15.9558 34.3716 15.4433 34.3716 14.9308C34.2691 12.8124 33.3125 10.9674 29.4687 10.6087C27.3333 5.55202 21.9521 8.35369 21.9521 9.92536C21.9008 10.3183 22.3108 11.1554 22.3791 11.2066C22.8322 11.2066 23.2667 11.3866 23.5871 11.707C23.9075 12.0273 24.0875 12.4619 24.0875 12.9149C24.0875 13.8545 23.3187 14.6233 22.3791 14.6233C21.4737 14.5891 20.6196 14.2474 19.9362 13.6666C19.1162 14.1962 18.1766 14.5208 17.2029 14.6233C16.2291 14.7087 15.4262 14.0254 15.375 13.0858C15.344 12.8627 15.3588 12.6356 15.4186 12.4185C15.4783 12.2013 15.5817 11.9986 15.7224 11.8228C15.863 11.6469 16.0381 11.5016 16.2369 11.3956C16.4356 11.2897 16.6539 11.2254 16.8783 11.2066C17.1516 11.1724 18.4841 10.9674 18.4841 9.89119C18.4841 8.76369 18.9112 7.68744 19.6458 6.83327C18.0741 6.40619 16.3829 6.96994 14.6746 9.03702C11.5312 8.54161 10.25 8.96869 9.31039 12.2999C7.68748 13.1029 6.83331 13.6666 6.45748 15.3749C8.30248 14.9991 10.1987 15.1529 11.9583 15.802C12.8125 16.1266 13.2908 17.0833 12.9662 18.0058C12.6416 18.8941 11.6508 19.3383 10.7625 19.0137C9.51539 18.467 8.11456 18.4329 6.83331 18.9112C6.28664 19.3724 6.28664 20.3291 6.28664 21.0808C6.28664 22.3449 6.91873 23.5237 7.99498 24.207C8.90039 24.6683 9.90831 24.9074 10.9162 24.8904C10.66 24.4462 10.4379 23.9849 10.25 23.5066C10.1155 23.0677 10.1565 22.5937 10.3643 22.1844C10.5721 21.7751 10.9305 21.4623 11.3642 21.3118C11.7979 21.1613 12.273 21.1849 12.6897 21.3776C13.1064 21.5703 13.4321 21.917 13.5983 22.3449C14.2816 24.2924 16.0241 25.6249 18.0741 25.847C20.4146 25.7274 22.4987 24.3437 23.5237 22.2083C23.9166 19.8508 25.8129 19.6458 27.8971 19.6458ZM31.3137 32.407L30.2546 30.1862L29.0416 30.4595L30.75 32.5949L31.3137 32.407ZM23.37 17.6983C23.3848 17.2619 23.232 16.8363 22.9429 16.5091C22.6538 16.1818 22.2503 15.9777 21.8154 15.9387C20.6025 15.8704 19.4237 16.2804 18.5183 17.0833C17.5446 18.0741 17.0321 19.4408 17.0833 20.8245C17.0833 21.2776 17.2633 21.7121 17.5837 22.0325C17.904 22.3529 18.3386 22.5329 18.7916 22.5329C19.7654 22.5329 20.5 21.7641 20.5 20.8245C20.5 20.3633 20.6196 19.902 20.8929 19.5262C21.0979 19.3554 21.3541 19.2699 21.6275 19.2699C22.5671 19.3212 23.37 18.6208 23.37 17.6983Z" fill="#C0BDBD"/>
</g>
</svg>
